<?xml version="1.0" encoding="utf-8"?>
<!-- Generator: Adobe Illustrator 23.0.6, SVG Export Plug-In . SVG Version: 6.00 Build 0)  -->
<svg version="1.1" id="Layer_1" xmlns="http://www.w3.org/2000/svg" xmlns:xlink="http://www.w3.org/1999/xlink" x="0px" y="0px"
	 viewBox="0 0 1920 1080" enable-background="new 0 0 1920 1080" xml:space="preserve">
<g>
	
		<linearGradient id="SVGID_1_" gradientUnits="userSpaceOnUse" x1="653.6896" y1="-145.4095" x2="654.6897" y2="-145.4095" gradientTransform="matrix(2.841487e-14 464.05 464.05 -2.841487e-14 68437.2734 -302728.3438)">
		<stop  offset="0" style="stop-color:#878F93"/>
		<stop  offset="0.9804" style="stop-color:#E0E4E6"/>
		<stop  offset="1" style="stop-color:#E0E4E6"/>
	</linearGradient>
	<rect y="616.3" fill="url(#SVGID_1_)" width="1920" height="464.1"/>
	
		<radialGradient id="SVGID_2_" cx="653.5822" cy="-144.7373" r="1" gradientTransform="matrix(3.609306e-11 344.6781 887.0748 -9.080660e-11 129372.6484 -224771.25)" gradientUnits="userSpaceOnUse">
		<stop  offset="0" style="stop-color:#F1F3F4"/>
		<stop  offset="1.346620e-02" style="stop-color:#F1F3F4"/>
		<stop  offset="1" style="stop-color:#D4D8DA"/>
	</radialGradient>
	<polyline fill="url(#SVGID_2_)" points="1919.8,0 0,0 0.8,619 1920,620 1919.8,0 	"/>
	<polyline fill="#9DA4AA" points="538.4,664.7 538.4,664.7 539.1,664.5 538.4,664.7 	"/>
	<polyline fill="#BFC4C8" points="598.6,639.9 575.7,667.7 281.7,667.7 155.8,660.5 151.4,647.3 151.3,647.3 149.1,640.6 
		171.2,612.3 196.3,580.3 267.7,547.4 297.3,504.6 298,503.4 316,472.6 413.1,469.8 448.9,494.6 474.7,512.5 533.5,559.8 550,607 
		553.5,609.4 598.6,639.9 	"/>
	<path fill="#9DA4AA" d="M149.1,640.6L149.1,640.6l2.2,6.7l4.4,13.2l30.4,1.7l35-2.8l5.7-6.2L149.1,640.6 M248.2,626.9L248.2,626.9
		l-17.7,22.4l84.6,10.6l91.6-0.5l49.5,4.1l97.3-5.1l45.1-18.5l-61.8,7.4l-59.4-13.2l-125.8,16.4l-36.5-7.9L248.2,626.9"/>
	<path fill="#D2D6D8" d="M299.2,501.4l-2.8,4.5l-28.7,41.5l29.6-42.8l0.7-1.2L299.2,501.4 M413.8,470.3L413.8,470.3l35.1,24.3
		l25.8,17.9l58.8,47.3l16.4,47.1l0.7,0.6h0.1l-16.5-47.2L475.5,513l-25.8-17.9L413.8,470.3"/>
	<path fill="#E1E4E6" d="M196.3,580.3L196.3,580.3l40.8,4.8l1.2,0.3l1.8-0.7L196.3,580.3 M474.7,512.5v9.1l0.2,0.2l0.6,0.3l-0.1,0.5
		l34.3,50.3l23.9-13.1L474.7,512.5 M406.7,489.9l-44.3,32.5l-94.6,25.1l39.2,10.4l87.1-22.3l13.4-45.2l67.3,31.2L406.7,489.9"/>
	<polyline fill="#B1B6BB" points="509.7,572.8 491.3,582.9 474.7,592 327.4,617.3 266.7,593.3 238.4,585.5 237.9,585.6 196.3,580.3 
		171.2,612.3 248.2,603.6 315.1,624.2 431.9,624.2 498.3,611.8 553.5,609.4 550.7,607.5 550,607 549.9,606.9 509.7,572.8 	"/>
	<polyline fill="#D0D4D7" points="533.5,559.8 509.7,572.8 549.9,606.9 533.5,559.8 	"/>
	<polyline fill="#D0D4D7" points="196.3,580.3 196.3,580.3 237.9,585.6 238.3,585.4 237.1,585.1 196.3,580.3 	"/>
	<polyline fill="#EFF1F3" points="498.3,611.8 431.9,624.2 315.1,624.2 331.2,625.8 431.9,628.9 498.3,611.8 	"/>
	<polyline fill="#899197" points="598.6,639.9 598.6,639.9 553.5,658.4 456.2,663.5 406.7,659.4 315.1,659.9 230.5,649.3 
		227.4,653.3 226.9,653.2 221.2,659.4 186.2,662.2 281.7,667.7 575.7,667.7 598.6,639.9 	"/>
	<polyline fill="#EFF1F3" points="469.1,559.8 448.9,576.9 362.4,596.1 327.4,617.3 474.7,592 491.3,582.9 478,562.6 469.1,559.8 	
		"/>
	<polyline fill="#EBEEF0" points="491.3,582.9 474.7,592 491.3,582.9 	"/>
	<polyline fill="#F0F3F4" points="327.4,476.3 298,503.4 297.3,504.6 267.7,547.4 362.4,522.4 406.7,489.9 474.7,521.6 474.7,512.5 
		448.9,494.6 406.7,480.6 327.4,476.3 	"/>
	<polyline fill="#B1B6BB" points="407.4,490.4 394,535.6 509.7,572.8 470.4,560.1 475.4,522.6 474.9,521.8 407.4,490.4 	"/>
	<path fill="#D0D4D7" d="M475.4,522.6l-5,37.5l39.2,12.7L475.4,522.6 M407.4,490.4L394,535.6L407.4,490.4l67.5,31.4l-0.2-0.2
		L407.4,490.4"/>
	<polyline fill="#EFF1F3" points="394,535.6 306.9,557.9 240.4,584.8 307.6,561.8 362.4,557.7 394,535.6 	"/>
	<polyline fill="#EFF1F3" points="240.1,584.7 238.3,585.4 238.4,585.5 240.4,584.8 240.1,584.7 	"/>
	<polyline fill="#EBEEF0" points="238.3,585.4 237.9,585.6 238.4,585.5 238.3,585.4 	"/>
	<path fill="#F7F9FA" d="M316,472.6l-16.8,28.8L316,472.6 M413.1,469.8l-97.1,2.8l97.8-2.3L413.1,469.8"/>
	<polyline fill="#FBFCFD" points="413.8,470.3 316,472.6 299.2,501.4 298,503.4 327.4,476.3 406.7,480.6 448.9,494.6 413.8,470.3 	
		"/>
	<polyline fill="#E1E4E6" points="248.2,603.6 171.2,612.3 149.1,640.6 226.9,653.2 229,650.9 248.2,626.9 248.2,603.6 	"/>
	<polyline fill="#D0D5D9" points="248.2,626.9 229,650.9 230.4,649.3 248.2,626.9 	"/>
	<polyline fill="#D5D9DC" points="229.1,650.9 227,653.2 227.4,653.3 229.1,650.9 	"/>
	<polyline fill="#C7CDD1" points="230.5,649.3 229.1,650.9 227.4,653.3 230.5,649.3 	"/>
	<polyline fill="#F7F9FA" points="267.7,547.4 267.7,547.4 196.3,580.3 240.1,584.7 306.9,557.9 267.7,547.4 	"/>
	<polyline fill="#FBFCFC" points="306.9,557.9 240.1,584.7 240.4,584.8 306.9,557.9 	"/>
	<polyline fill="#8D9499" points="1768.5,636.8 1767.8,641 1761,648.8 1681.1,648.8 1667.6,645.6 1669.8,650.9 1671.2,654.2 
		1673.8,660.4 1731.2,660.4 1746.2,654.7 1772,644.8 1768.5,636.8 	"/>
	<polyline fill="#BFC4C8" points="1641.7,621 1641.8,621.4 1648.7,641 1681.1,648.8 1761,648.8 1767.8,641 1770.2,627.2 1774,605.8 
		1748.2,581.6 1733.2,567.6 1674.8,567.6 1667.7,576.5 1646.9,602.8 1643.9,613.4 1641.7,621 	"/>
	<polyline fill="#9DA4AA" points="1678.1,627.9 1659,633.3 1663.3,635.1 1664.6,638.3 1671.8,641 1680.1,644.9 1704.8,641 
		1745.2,644.9 1767.8,641 1761.4,636.9 1746.7,641 1686.2,634.6 1678.1,627.9 	"/>
	<path fill="#EFF1F3" d="M1774,605.8L1774,605.8 M1674.8,567.6L1674.8,567.6l-7.2,15.3l-0.7,19.9H1647h19.9l13.1-23l24.9,11.3
		l40.5,6.2h-26.9h24.5l14.8,4.1l16.3,4.5l-39.8-27.7l-21.1,5.2l-33.3-3.5L1674.8,567.6"/>
	<polyline fill="#A7ADB2" points="1646.9,602.8 1646.9,602.8 1643.9,613.4 1646.9,618 1678.1,627.9 1700.6,629.9 1746.6,627.2 
		1762.9,627.2 1770.2,627.2 1774,605.8 1763,621.4 1729.1,616.4 1718.4,605.8 1674.8,614.3 1646.9,602.8 	"/>
	<path fill="#929AA0" d="M1664.6,638.3l3,7.3l13.4,3.3h80l6.7-7.9l-22.5,3.9l-40.5-3.9l-24.7,3.9l-8.2-3.9L1664.6,638.3
		 M1641.8,621.4l2,5.8l6,2.5L1641.8,621.4"/>
	<polyline fill="#FBFCFC" points="1674.8,567.6 1674.8,567.6 1679.9,579.8 1713.1,583.3 1734.3,578.1 1774,605.8 1757.7,590.5 
		1732.7,570.5 1718.4,570.6 1674.8,567.6 	"/>
	<polyline fill="#FBFCFC" points="1674.8,567.6 1674.8,567.6 1667.5,582.9 1667.7,576.5 1667.5,582.9 1646.9,602.8 1666.8,602.8 
		1667.5,582.9 1674.8,567.6 	"/>
	<polyline fill="#EFF1F3" points="1646.9,618 1663.4,625.1 1678.1,627.9 1646.9,618 	"/>
	<path fill="#EFF1F3" d="M1700.6,629.9h-0.5h0.9H1700.6 M1762.9,627.2h-13.7L1701,630h47L1762.9,627.2"/>
	<polyline fill="#E9ECEE" points="1762.9,627.2 1746.6,627.2 1700.6,629.9 1701,630 1749.2,627.2 1762.9,627.2 	"/>
	<polyline fill="#EFF1F3" points="1718.4,605.8 1680.9,609.8 1657.1,607 1661.7,608.9 1674.8,614.3 1718.4,605.8 	"/>
	<polyline fill="#EEF0F1" points="1674.8,567.6 1667.7,576.5 1667.5,582.9 1674.8,567.6 	"/>
	
		<radialGradient id="SVGID_3_" cx="653.584" cy="-144.7348" r="1" gradientTransform="matrix(3.621289e-11 346.2002 890.02 -9.120761e-11 129581.1953 -225747.6875)" gradientUnits="userSpaceOnUse">
		<stop  offset="0" style="stop-color:#FBFCFD"/>
		<stop  offset="1.346620e-02" style="stop-color:#FBFCFD"/>
		<stop  offset="1" style="stop-color:#F4F6F7"/>
	</radialGradient>
	<polyline fill="url(#SVGID_3_)" points="1733.2,567.6 1674.8,567.6 1733.2,567.6 1748.2,581.6 1757.7,590.5 1748.2,581.6 
		1733.2,567.6 	"/>
	<polyline fill="#FEFEFE" points="1733.2,567.6 1674.8,567.6 1718.4,570.6 1732.7,570.5 1757.7,590.5 1748.2,581.6 1733.2,567.6 	
		"/>
	<polyline fill="#FEFEFE" points="1667.7,576.5 1646.9,602.8 1667.5,582.9 1667.7,576.5 	"/>
	<polyline fill="#E1E4E6" points="1704.8,591.1 1718.4,597.3 1704.8,591.1 	"/>
	<polyline fill="#F7F9F9" points="1704.8,591.1 1718.4,597.3 1745.2,597.3 1704.8,591.1 	"/>
	<polyline fill="#B1B6BB" points="1757.7,601.3 1727.9,609.6 1718.4,605.8 1722.7,610.1 1729.1,616.4 1751.7,619.7 1763,621.4 
		1774,605.8 1757.7,601.3 	"/>
	<polyline fill="#DDE0E3" points="1757.7,601.3 1757.7,601.3 1774,605.8 1757.7,601.3 	"/>
	<polyline fill="#BFC4C8" points="293.6,783.1 302.4,797.8 296.8,800.9 188,806 138.7,800.9 135.1,795.8 123.8,790.2 126,771.3 
		118.4,765.9 123.8,749.1 137.4,741.3 152.9,732.4 171.8,738.9 173.8,739.6 208.3,739.6 244.7,725 282.2,725.6 287.8,731.6 
		300.7,745.4 309,754.2 302.3,766.3 293.5,782.1 293.2,782.6 293.6,783.1 	"/>
	<path fill="#9DA4AA" d="M123.8,790.2L123.8,790.2l11.3,5.6l3.6,5.1L188,806l108.8-5.1l5.6-3l-5.6,3L188,806l-49.3-5.1l-3.6-5.1
		l10,0.1l24.3-0.5L148,792h0.3L123.8,790.2 M309,754.2l-8.1,12.6l1.4-0.5l-8.8,15.8l-2.7,0.2l-28.2,5.5l-59.7,4.5l-25.8-8.2
		l-5.5-1.8l2.3,1.9l4.3,3.5l-8.8,7.7l5.7,5.1l11.7-7.9l29.5,4.9l77.7-2.9l-0.6-11.4l-0.3-0.5l0.3-0.5l8.8-15.8L309,754.2"/>
	<path fill="#E1E4E6" d="M208.3,739.6l-7.5,4.5l-54.5,8.7l-22.4-3.7l25.8,23.5l17-14.4l36.3-9.4L208.3,739.6 M277.4,739l-40.7,9.8
		l38.6,16.7l33.6-11.3l-8.3-8.8L277.4,739"/>
	<polyline fill="#B1B6BB" points="221.5,765.5 201.6,772.6 155.1,772.6 149.7,772.6 137.6,776.6 126,771.3 123.8,790.2 144.2,787.7 
		173.7,784.2 174,784.2 171.7,782.2 198.8,782.2 249.7,782.2 231.9,782.2 247,776.4 221.5,765.5 	"/>
	<polyline fill="#B1B6BB" points="300.9,766.8 300.9,766.8 290.9,782.2 271.7,782.2 290.9,782.2 300.9,766.8 	"/>
	<polyline fill="#91999F" points="302.3,766.3 300.9,766.8 290.9,782.2 293.5,782.1 302.3,766.3 	"/>
	<polyline fill="#899197" points="293.6,783.1 294.2,794.5 216.4,797.4 186.9,792.5 175.2,800.5 169.5,795.4 145.2,795.9 
		135.1,795.8 138.7,800.9 188,806 296.8,800.9 302.4,797.8 293.6,783.1 	"/>
	<polyline fill="#F0F3F4" points="154.1,735.7 137.4,741.3 123.8,749.1 146.2,752.8 200.8,744.1 208.3,739.6 200.8,744.1 
		169.7,741.3 154.1,735.7 	"/>
	<polyline fill="#F0F3F4" points="274.7,727.5 242.3,736.3 216.4,741.3 208.3,739.6 203,748.8 236.7,748.8 277.4,739 300.7,745.4 
		287.8,731.6 274.7,727.5 	"/>
	<polyline fill="#A4A9AF" points="271.7,782.2 208,782.2 198.8,782.2 209.5,784.2 239.5,783.1 271.7,782.2 	"/>
	<polyline fill="#EFF1F3" points="203,748.8 166.7,758.2 149.7,772.6 155.1,772.6 168.6,762.3 181.3,755.9 203,748.8 	"/>
	<polyline fill="#EBEEF0" points="155.1,772.6 149.7,772.6 155.1,772.6 	"/>
	<polyline fill="#B1B6BB" points="309,754.2 275.3,765.5 247,776.4 247.4,776.6 278.9,774 300.9,766.8 309,754.2 	"/>
	<polyline fill="#A4A9AF" points="300.9,766.8 278.9,774 247.4,776.6 247,776.4 231.9,782.2 249.7,782.2 271.8,782.2 271.7,782.2 
		290.9,782.2 300.9,766.8 	"/>
	<polyline fill="#FBFCFD" points="152.9,732.4 137.4,741.3 154.1,735.7 169.7,741.3 200.8,744.1 208.3,739.6 173.8,739.6 
		171.8,738.9 152.9,732.4 	"/>
	<polyline fill="#FBFCFD" points="244.7,725 208.3,739.6 216.4,741.3 242.3,736.3 274.7,727.5 287.8,731.6 282.2,725.6 244.7,725 	
		"/>
	<polyline fill="#B1B6BB" points="236.7,748.8 203,748.8 181.3,755.9 195.4,765.5 221.5,765.5 236.7,748.8 	"/>
	<polyline fill="#E1E4E6" points="195.4,765.5 178.3,768.3 178.3,772.6 201.6,772.6 221.5,765.5 195.4,765.5 	"/>
	<polyline fill="#BFC4C8" points="1714.2,752.1 1694.8,770.4 1432.4,770.4 1333.7,763.8 1322.4,757.8 1322.4,726.9 1322.4,706.1 
		1323.2,704.3 1343.1,662 1358.7,628.7 1364.4,609.4 1365.3,606.4 1367.2,605.5 1404.5,588.7 1418.1,582.6 1539.6,600.8 
		1540.3,601.3 1554.1,610.4 1578,626.2 1602.2,642.2 1616.5,624 1619.6,619.9 1621.2,617.9 1658.2,633 1663.3,635.1 1669.8,650.9 
		1671.2,654.2 1679.9,675.3 1694.8,711.5 1699.3,721 1714.2,752.1 	"/>
	<polyline fill="#9DA4AA" points="1699.3,721 1678.6,752.1 1564.1,753.8 1568.5,737.8 1564.1,753.8 1556.6,759.4 1686,758.6 
		1714.2,752.1 1699.3,721 	"/>
	<path fill="#9DA4AA" d="M1568.5,737.8L1568.5,737.8 M1322.4,726.9v30.9l11.4,6l98.6,6.6h262.5l19.3-18.3l-19.3,18.3h-262.5
		l-98.6-6.6l-11.4-6l17.4-12.1l15.8,13.7l123.1,3.2l65.2-10.5l24.6-14.3l-115.1,16.1l-77.8-1.7L1322.4,726.9"/>
	<path fill="#E1E4E6" d="M1622.9,634.3l-16.6,12.2l40.2,21.1l24.8-13.4l-1.4-3.3l-14.9-4.4L1622.9,634.3 M1374.9,613l34.6,33.5
		l159.1,9.8l37.7-9.8l-4-4.2l-24.3-16l-108.2-21.9l-59.5,20.8L1374.9,613"/>
	<path fill="#ACB2B7" d="M1395.5,676.5L1395.5,676.5l57.3,15.9L1395.5,676.5 M1679.9,675.3l-25.1,30.8l-98.8-9.2l-103.2-4.5
		l27.4,33.3l22.1-1.7l62.8-4.8l88.4,9.1l46-7.4l-4.5-9.4L1679.9,675.3 M1343.1,662l-19.9,42.3l31.3,14.9l63.7,11.2l-35.4-31.8
		l-15.6-14l-31.5-6.9L1343.1,662"/>
	<polyline fill="#929AA0" points="1568.5,737.8 1543.9,752.1 1478.7,762.6 1355.5,759.4 1339.8,745.7 1322.4,757.8 1333.7,763.8 
		1432.4,770.4 1694.8,770.4 1714.2,752.1 1686,758.6 1556.6,759.4 1564.1,753.8 1568.5,737.8 	"/>
	<polyline fill="#F0F3F4" points="1418.1,582.6 1404.5,588.7 1367.2,605.5 1418.1,582.6 	"/>
	<polyline fill="#F0F3F4" points="1433.4,597.8 1367.2,605.5 1370.2,608.4 1373,611.2 1374.9,613 1410.3,625.1 1469.7,604.3 
		1578,626.2 1568.6,620 1554.1,610.4 1479.2,568.4 1433.4,597.8 	"/>
	<polyline fill="#F0F3F4" points="1620.9,625.8 1620.9,625.8 1622.9,634.3 1655,646.5 1669.8,650.9 1663.3,635.1 1620.9,625.8 	"/>
	<polyline fill="#D0D4D7" points="1619.6,619.9 1619.6,619.9 1616.5,624 1602.2,642.2 1606.2,646.5 1622.9,634.3 1620.9,625.8 
		1620.1,622.2 1619.6,619.9 	"/>
	<polyline fill="#FBFCFD" points="1418.1,582.6 1367.2,605.5 1434.4,599.8 1479.2,568.4 1554.1,610.4 1500.3,571.3 1479.6,560.8 
		1439.1,581.6 1418.1,582.6 	"/>
	<polyline fill="#FBFCFD" points="1621.2,617.9 1619.6,619.9 1620.9,625.8 1663.3,635.1 1659,633.3 1658.2,633 1649.9,629.6 
		1643.8,627.2 1626.3,620 1621.2,617.9 	"/>
	<polyline fill="#F3F5F6" points="1619.6,619.9 1620.1,622.2 1620.9,625.8 1619.6,619.9 	"/>
	<polyline fill="#EFF1F3" points="1565,719.2 1418.1,730.4 1354.5,719.2 1376.6,730.4 1406.9,736.7 1565,719.2 	"/>
	<polyline fill="#EAEDEF" points="1565,719.2 1502.1,724 1480.1,725.7 1418.1,730.4 1354.5,719.2 1418.1,730.4 1565,719.2 	"/>
	<polyline fill="#EFF1F3" points="1679.9,675.3 1644.7,697 1598.8,693.4 1548.1,696.2 1556,696.9 1562.2,697.2 1654.8,706.1 
		1679.9,675.3 	"/>
	<polyline fill="#EAEDEF" points="1556,696.9 1654.8,706.1 1562.2,697.2 1556,696.9 	"/>
	<polyline fill="#9DA4AA" points="1606.2,646.5 1568.5,656.3 1548.1,696.2 1593,693 1598.8,693.4 1606.2,693 1606.2,646.5 	"/>
	<polyline fill="#C5CACE" points="1593,693 1548.1,696.2 1598.8,693.4 1593,693 	"/>
	<polyline fill="#9DA4AA" points="1671.2,654.2 1646.4,667.6 1644.7,697 1679.9,675.3 1671.2,654.2 	"/>
	
		<radialGradient id="SVGID_4_" cx="653.584" cy="-144.7348" r="1" gradientTransform="matrix(3.621289e-11 346.2002 890.02 -9.120761e-11 129581.1953 -225747.6875)" gradientUnits="userSpaceOnUse">
		<stop  offset="0" style="stop-color:#DFE2E4"/>
		<stop  offset="1.346620e-02" style="stop-color:#DFE2E4"/>
		<stop  offset="1" style="stop-color:#C4C9CC"/>
	</radialGradient>
	<polyline fill="url(#SVGID_4_)" points="1365.3,606.4 1365.3,606.4 1361.3,620 1364.4,609.4 1365.3,606.4 	"/>
	
		<linearGradient id="SVGID_5_" gradientUnits="userSpaceOnUse" x1="653.687" y1="-145.4217" x2="654.687" y2="-145.4217" gradientTransform="matrix(0 460.0002 460.0002 0 68254.0156 -300076.125)">
		<stop  offset="0" style="stop-color:#7D8589"/>
		<stop  offset="0.9804" style="stop-color:#CFD4D7"/>
		<stop  offset="1" style="stop-color:#CFD4D7"/>
	</linearGradient>
	<polyline fill="url(#SVGID_5_)" points="1361.3,620 1361.3,620 1358.7,628.7 1361.3,620 	"/>
	<polyline fill="#B1B6BB" points="1365.3,606.4 1365.3,606.4 1364.4,609.4 1361.3,620 1358.7,628.7 1355.7,635.1 1343.1,662 
		1345.8,656.3 1382.8,671.3 1367.2,646.5 1365.3,606.4 	"/>
	<polyline fill="#D7DBDE" points="1343.1,662 1343.1,662 1379.9,672.2 1363.3,667.6 1343.1,662 	"/>
	<polyline fill="#CBD0D3" points="1343.1,662 1343.1,662 1335.7,677.7 1367.2,684.6 1395.5,676.5 1379.9,672.2 1343.1,662 	"/>
	<polyline fill="#CED2D6" points="1345.8,656.3 1343.1,662 1363.3,667.6 1379.9,672.2 1395.5,676.5 1382.8,671.3 1345.8,656.3 	"/>
	<polyline fill="#C3C8CC" points="1379.9,672.2 1395.5,676.5 1379.9,672.2 	"/>
	<polyline fill="#A4A9AF" points="1367.2,605.5 1367.2,605.5 1365.3,606.4 1367.2,646.5 1382.8,671.3 1395.5,676.5 1412,656.2 
		1409.5,646.5 1374.9,613 1373,611.2 1367.2,605.5 	"/>
	<polyline fill="#C0C5C9" points="1373,611.2 1374.9,613 1409.5,646.5 1374.9,613 1373,611.2 	"/>
	<path fill="#CDD2D5" d="M1373,611.2l1.9,1.8L1373,611.2 M1367.2,605.5L1367.2,605.5"/>
	<polyline fill="#D8DBDE" points="1452.7,692.4 1382.8,698.6 1418.1,730.4 1480.1,725.7 1452.7,692.4 	"/>
	<polyline fill="#F5F7F8" points="1480.1,725.7 1418.1,730.4 1480.1,725.7 	"/>
	<polyline fill="#F2F4F5" points="1395.5,676.5 1395.5,676.5 1367.2,684.6 1382.8,698.6 1452.7,692.4 1395.5,676.5 	"/>
	
		<linearGradient id="SVGID_6_" gradientUnits="userSpaceOnUse" x1="653.687" y1="-145.4217" x2="654.687" y2="-145.4217" gradientTransform="matrix(0 460.0001 460.0001 0 68673.3516 -300076.0625)">
		<stop  offset="0" style="stop-color:#8B9397"/>
		<stop  offset="0.9804" style="stop-color:#DBDFE2"/>
		<stop  offset="1" style="stop-color:#DBDFE2"/>
	</linearGradient>
	<polyline fill="url(#SVGID_6_)" points="1779,709.2 1779.1,709.3 1779.7,709.3 1779,709.2 	"/>
	<polyline fill="#BFC4C8" points="1827.8,709.3 1810.4,712.5 1772.8,708.6 1773.7,706.5 1776,701.3 1780.7,690.8 1801.1,682 
		1819.2,692.6 1820,693.6 1823.9,700.9 1827.8,709.3 	"/>
	
		<linearGradient id="SVGID_7_" gradientUnits="userSpaceOnUse" x1="653.687" y1="-145.4217" x2="654.687" y2="-145.4217" gradientTransform="matrix(0 460.0001 460.0001 0 68675.6641 -300076.0625)">
		<stop  offset="0" style="stop-color:#C6CBCE"/>
		<stop  offset="0.9804" style="stop-color:#F0F3F4"/>
		<stop  offset="1" style="stop-color:#F0F3F4"/>
	</linearGradient>
	<polyline fill="url(#SVGID_7_)" points="1783.1,689.8 1782.5,689.9 1780.2,690.8 1780.6,691 1780.7,690.8 1783.1,689.8 	"/>
	<polyline fill="#E1E4E6" points="1799.5,687 1783.1,689.8 1780.6,690.9 1793.7,696.5 1793.6,696.6 1809.9,699.1 1818.7,692.8 
		1816.1,691.2 1808.7,690.6 1799.5,687 	"/>
	<path fill="#A0A7AC" d="M1773.7,706.5L1773.7,706.5l-0.9,2.1l6.9,0.7l23.8-1.2L1773.7,706.5 M1823.9,700.9l-1.6,4.3l-7.4,2.8
		l13.1,0.8L1823.9,700.9"/>
	<polyline fill="#B1B6BB" points="1780.6,691 1777.1,698.9 1776,701.3 1787.2,700.1 1793.7,696.4 1793.4,696.4 1780.6,691 	"/>
	<polyline fill="#D0D4D7" points="1780.7,690.8 1780.7,690.8 1780.6,691 1793.4,696.4 1793.7,696.4 1793.8,696.4 1780.7,690.8 	"/>
	<polyline fill="#F7F9FA" points="1801.1,682 1800.7,682.2 1783.1,689.7 1799.5,686.9 1808.8,690.4 1816.2,691 1801.1,682 	"/>
	<polyline fill="#929AA0" points="1779.1,709.3 1772.8,709.6 1773.7,710.6 1776,713.2 1780.6,718.4 1780.2,718.5 1782.5,719 
		1800.7,722.8 1801.1,722.9 1819.2,717.6 1820,717.1 1823.9,713.4 1827,710.4 1810.4,712.4 1808.8,712.2 1800.2,714.2 1799.9,714.1 
		1781.7,710.4 1779.4,709.9 1779.8,709.8 1779.1,709.3 	"/>
	<polyline fill="#A0A7AC" points="1782.6,709.6 1779.8,710 1779.7,709.9 1779.8,710 1782.3,710.5 1798.6,712.1 1802.2,711.6 
		1782.6,709.6 	"/>
	
		<linearGradient id="SVGID_8_" gradientUnits="userSpaceOnUse" x1="653.687" y1="-145.4218" x2="654.687" y2="-145.4218" gradientTransform="matrix(0 460.0001 460.0001 0 68674.7266 -300076.0625)">
		<stop  offset="0" style="stop-color:#929A9D"/>
		<stop  offset="0.9804" style="stop-color:#DDE1E4"/>
		<stop  offset="1" style="stop-color:#DDE1E4"/>
	</linearGradient>
	<polyline fill="url(#SVGID_8_)" points="1779.7,709.3 1779.1,709.3 1779.8,710 1782.3,709.6 1779.7,709.3 	"/>
	
		<linearGradient id="SVGID_9_" gradientUnits="userSpaceOnUse" x1="653.687" y1="-145.4218" x2="654.687" y2="-145.4218" gradientTransform="matrix(0 460.0001 460.0001 0 68675.2266 -300076.0625)">
		<stop  offset="0" style="stop-color:#959CA0"/>
		<stop  offset="0.9804" style="stop-color:#E0E4E6"/>
		<stop  offset="1" style="stop-color:#E0E4E6"/>
	</linearGradient>
	<polyline fill="url(#SVGID_9_)" points="1782.3,709.6 1779.8,710 1782.6,709.6 1782.3,709.6 	"/>
	<polyline fill="#A0A7AC" points="1782.3,710.6 1799.9,714.3 1800.2,714.4 1808.7,712.4 1802.3,711.7 1798.7,712.2 1782.3,710.6 	
		"/>
	<polyline fill="#A6ACB1" points="1814.9,708 1813.3,708.6 1803.5,708.1 1779.7,709.3 1810.4,712.5 1827,710.5 1828.3,709.3 
		1828,708.8 1814.9,708 	"/>
</g>
</svg>
